<svg width="137" height="137" viewBox="0 0 137 137" fill="none" xmlns="http://www.w3.org/2000/svg">
<path d="M84.5546 57.7969C83.0777 57.7969 81.8788 58.9958 81.8788 60.4727C81.8788 61.9496 83.0777 63.1484 84.5546 63.1484C86.0315 63.1484 87.2303 61.9496 87.2303 60.4727C87.2303 58.9958 86.0315 57.7969 84.5546 57.7969Z" fill="#5C75E6"/>
<path d="M84.5546 73.8516C83.0777 73.8516 81.8788 75.0504 81.8788 76.5273C81.8788 78.0042 83.0777 79.2031 84.5546 79.2031C86.0315 79.2031 87.2303 78.0042 87.2303 76.5273C87.2303 75.0504 86.0315 73.8516 84.5546 73.8516Z" fill="#5C75E6"/>
<path d="M20.3359 84.5547C18.859 84.5547 17.6602 85.7536 17.6602 87.2305C17.6602 88.7074 18.859 89.9062 20.3359 89.9062C21.8128 89.9062 23.0117 88.7074 23.0117 87.2305C23.0117 85.7536 21.8128 84.5547 20.3359 84.5547Z" fill="#5C75E6"/>
<path d="M135.561 36.6937C134.677 36.2328 133.611 36.3018 132.793 36.8725L110.471 52.4453H103.285V49.7695C103.285 45.343 99.6842 41.7422 95.2576 41.7422H85.3123C89.765 37.8163 92.5818 32.077 92.5818 25.6875C92.5818 13.8838 82.9794 4.28125 71.1756 4.28125C63.1243 4.28125 56.0993 8.75169 52.4452 15.3387C48.7911 8.75169 41.7661 4.28125 33.7148 4.28125C21.9111 4.28125 12.3086 13.8838 12.3086 25.6875C12.3086 32.077 15.1255 37.8163 19.5781 41.7422H8.02733C3.6008 41.7422 0 45.343 0 49.7695V97.9336C0 102.36 3.6008 105.961 8.02733 105.961H23.0117V113.988C23.0117 115.466 24.2095 116.664 25.6874 116.664H33.7148V130.043C33.7148 131.521 34.9126 132.719 36.3906 132.719H68.4999C69.9778 132.719 71.1756 131.521 71.1756 130.043V116.664H79.203C80.6809 116.664 81.8787 115.466 81.8787 113.988V105.961H95.2576C99.6842 105.961 103.285 102.36 103.285 97.9336V89.9062H110.471L132.793 105.48C133.602 106.044 134.668 106.124 135.561 105.658C136.446 105.196 137 104.282 137 103.285V39.0664C137 38.0693 136.446 37.1557 135.561 36.6937ZM71.1756 9.63281C80.0287 9.63281 87.2303 16.8355 87.2303 25.6875C87.2303 34.5406 80.0287 41.7422 71.1756 41.7422C62.3226 41.7422 55.121 34.5406 55.121 25.6875C55.121 16.8355 62.3226 9.63281 71.1756 9.63281ZM57.039 41.7422H47.8504C49.6889 40.1221 51.2484 38.1936 52.4452 36.0363C53.642 38.1936 55.2015 40.1221 57.039 41.7422ZM17.6601 25.6875C17.6601 16.8355 24.8617 9.63281 33.7148 9.63281C42.5678 9.63281 49.7694 16.8355 49.7694 25.6875C49.7694 34.5406 42.5678 41.7422 33.7148 41.7422C24.8617 41.7422 17.6601 34.5406 17.6601 25.6875ZM65.8241 127.367H39.0663V116.664H65.8241V127.367ZM76.5272 111.312H28.3632V105.961H76.5272V111.312ZM97.9334 97.9336C97.9334 99.4095 96.7335 100.609 95.2576 100.609H8.02733C6.55147 100.609 5.35155 99.4095 5.35155 97.9336V49.7695C5.35155 48.2947 6.55147 47.0938 8.02733 47.0938H95.2576C96.7335 47.0938 97.9334 48.2947 97.9334 49.7695V97.9336ZM103.285 57.7969H108.636V84.5547H103.285V57.7969ZM131.648 98.1562L113.988 85.8351V56.5175L131.648 44.1964V98.1562Z" fill="#5C75E6"/>
<path d="M33.7148 17.6602C29.2883 17.6602 25.6875 21.261 25.6875 25.6875C25.6875 30.114 29.2883 33.7148 33.7148 33.7148C38.1414 33.7148 41.7422 30.114 41.7422 25.6875C41.7422 21.261 38.1414 17.6602 33.7148 17.6602ZM33.7148 28.3633C32.239 28.3633 31.0391 27.1634 31.0391 25.6875C31.0391 24.2127 32.239 23.0117 33.7148 23.0117C35.1907 23.0117 36.3906 24.2127 36.3906 25.6875C36.3906 27.1634 35.1907 28.3633 33.7148 28.3633Z" fill="#5C75E6"/>
<path d="M71.1756 33.7148C75.6022 33.7148 79.203 30.114 79.203 25.6875C79.203 21.261 75.6022 17.6602 71.1756 17.6602C66.7491 17.6602 63.1483 21.261 63.1483 25.6875C63.1483 30.114 66.7491 33.7148 71.1756 33.7148ZM71.1756 23.0117C72.6515 23.0117 73.8514 24.2127 73.8514 25.6875C73.8514 27.1634 72.6515 28.3633 71.1756 28.3633C69.6998 28.3633 68.4999 27.1634 68.4999 25.6875C68.4999 24.2127 69.6998 23.0117 71.1756 23.0117Z" fill="#5C75E6"/>
<path d="M60.4726 76.5273V60.4727C60.4726 58.9947 59.2747 57.7969 57.7968 57.7969H20.3359C18.858 57.7969 17.6602 58.9947 17.6602 60.4727V76.5273C17.6602 78.0053 18.858 79.2031 20.3359 79.2031H57.7968C59.2747 79.2031 60.4726 78.0053 60.4726 76.5273ZM55.121 73.8516H23.0117V63.1484H55.121V73.8516Z" fill="#5C75E6"/>
<path d="M84.5546 84.5547H31.0391C29.5611 84.5547 28.3633 85.7525 28.3633 87.2305C28.3633 88.7084 29.5611 89.9062 31.0391 89.9062H84.5546C86.0325 89.9062 87.2304 88.7084 87.2304 87.2305C87.2304 85.7525 86.0325 84.5547 84.5546 84.5547Z" fill="#5C75E6"/>
</svg>
