<svg width="130" height="130" viewBox="0 0 130 130" fill="none" xmlns="http://www.w3.org/2000/svg">
<path d="M64.5289 70.0476C64.6635 70.0476 64.7981 70.0476 64.9596 70.0476C65.0135 70.0476 65.0673 70.0476 65.1211 70.0476C65.2019 70.0476 65.3096 70.0476 65.3904 70.0476C73.2781 69.913 79.6583 67.1402 84.3694 61.8368C94.7339 50.1532 93.011 30.1243 92.8225 28.2129C92.1495 13.8642 85.3655 6.99938 79.766 3.79582C75.5933 1.39988 70.7207 0.107683 65.2827 0H65.0942C65.0673 0 65.0135 0 64.9865 0H64.825C61.8368 0 55.9681 0.484572 50.3417 3.68813C44.6883 6.8917 37.7966 13.7565 37.1236 28.2129C36.9352 30.1243 35.2123 50.1532 45.5767 61.8368C50.2609 67.1402 56.6411 69.913 64.5289 70.0476ZM44.3115 28.8859C44.3115 28.8051 44.3384 28.7244 44.3384 28.6705C45.2268 9.3684 58.9294 7.29551 64.7981 7.29551H64.9058C64.9596 7.29551 65.0404 7.29551 65.1211 7.29551C72.3897 7.45703 84.7463 10.4183 85.5809 28.6705C85.5809 28.7513 85.5809 28.8321 85.6078 28.8859C85.6347 29.0743 87.5192 47.3804 78.9584 57.018C75.5664 60.8408 71.0437 62.7252 65.0942 62.7791C65.0404 62.7791 65.0135 62.7791 64.9596 62.7791C64.9058 62.7791 64.8789 62.7791 64.825 62.7791C58.9025 62.7252 54.3529 60.8408 50.9878 57.018C42.4539 47.4343 44.2845 29.0474 44.3115 28.8859Z" fill="#5C75E6"/>
<path d="M120.282 103.268C120.282 103.241 120.282 103.214 120.282 103.187C120.282 102.972 120.255 102.756 120.255 102.514C120.093 97.1837 119.743 84.7194 108.06 80.7351C107.979 80.7082 107.871 80.6813 107.79 80.6544C95.6492 77.5585 85.554 70.5591 85.4463 70.4784C83.8041 69.3208 81.5428 69.7246 80.3852 71.3667C79.2276 73.0089 79.6314 75.2702 81.2736 76.4278C81.7312 76.7509 92.4457 84.2079 105.852 87.6538C112.125 89.8882 112.825 96.5914 113.013 102.729C113.013 102.972 113.013 103.187 113.04 103.402C113.067 105.825 112.905 109.567 112.475 111.721C108.114 114.198 91.0189 122.758 65.0135 122.758C39.1158 122.758 21.9135 114.171 17.5254 111.694C17.0947 109.54 16.9062 105.798 16.9601 103.375C16.9601 103.16 16.987 102.945 16.987 102.702C17.1754 96.5645 17.8754 89.8613 24.1479 87.6268C37.5544 84.181 48.2688 76.697 48.7265 76.4009C50.3686 75.2433 50.7724 72.982 49.6149 71.3398C48.4573 69.6977 46.1959 69.2939 44.5538 70.4514C44.4461 70.5322 34.4047 77.5316 22.2096 80.6275C22.1019 80.6544 22.0211 80.6813 21.9404 80.7082C10.2568 84.7194 9.90683 97.1837 9.74531 102.487C9.74531 102.729 9.74531 102.945 9.71839 103.16C9.71839 103.187 9.71839 103.214 9.71839 103.241C9.69147 104.641 9.66455 111.829 11.0913 115.436C11.3605 116.136 11.8451 116.728 12.4912 117.132C13.2988 117.67 32.6548 130 65.0404 130C97.426 130 116.782 117.643 117.59 117.132C118.209 116.728 118.72 116.136 118.989 115.436C120.336 111.855 120.309 104.668 120.282 103.268Z" fill="#5C75E6"/>
</svg>
